<svg xmlns="http://www.w3.org/2000/svg" viewBox="0 0 677 822" width="677" height="822"><path fill="#E5EAF5" fill-rule="evenodd" d="M47 820.5L47 819L23.2 818.7L-0.5 818.5L23.2 818.2L47 818L47 804.5C47 796.2 47.4 791 48 791C48.6 791 49 796 49 804.1L49 817.3L53.4 816.7C56.5 816.2 58 816.4 58.3 817.3C58.7 818.2 58.9 818.2 58.9 817.3C59 816.4 60.3 816.2 63.4 816.6L67.9 817.3L68.2 804.1L68.5 791L62.9 791C59.8 791 54.5 790.7 51.1 790.4L45 789.7L45 435.4L45 81L61 81L77 81L77 61.7L77 42.5L83 42.5L89 42.5L89 61.7L89 81L169.9 81C234 81 250.9 80.8 251.3 79.8C251.7 78.8 251.9 78.8 251.9 79.8C252 80.7 257.5 81 276 81L300 81L299.5 78.5C299.2 77.1 298.8 74.9 298.5 73.5C298.2 72.1 298.4 71 298.9 71C299.5 71 300.1 66.7 300.3 61.2L300.6 51.5L300.8 61.2C300.9 67.2 301.4 71 302 71C302.7 71 302.8 72.8 302.4 76L301.7 81L352.9 81C392 81 404 80.7 404 79.8C404 78.9 404.3 78.9 405.2 79.8C406.1 80.7 413 81 430.2 81L454 81L454.2 61.8L454.5 42.6L460.8 42.4L467 42.3L467 61.6L467 81L571.6 81C629.2 81 676.6 81.2 676.9 81.5C677.2 81.9 676.8 82.5 676.1 83C675.1 83.6 674.9 84.9 675.4 87.9C675.8 90.4 675.6 92 675 92C674.3 92 674 204.5 674 435.5C674 659.4 674.3 779 675 779C675.6 779 675.7 780.8 675.3 783.6C674.9 787 675.1 788.4 676.1 789.1L677.5 790L675.8 790C674.9 790 673.9 790.6 673.7 791.2C673.4 792 673.1 792.1 673.1 791.4C673 790.6 640.4 790.4 553 790.8L433 791.3L433 789.6L433 788L427.6 788C423.7 788 422.1 788.4 421.6 789.5C421.3 790.5 419.7 791 417 791C414.1 791 413 790.6 413 789.5L413 788L386.6 788C366.4 788 360 788.3 359.7 789.2C359.3 790.2 359.1 790.2 359.1 789.2C359 787.3 339.1 787.6 336.6 789.5C334.1 791.4 329.9 791.4 327.4 789.5L325.5 788.1L293.4 788L261.2 788L260.6 789.5C260.3 790.4 258.8 791 256.7 791C254.8 791 252.7 790.3 252 789.5C251.2 788.6 249 788 246.4 788C243.2 788 242 788.4 242 789.5L242 791L173.8 791C136.2 791.1 97.5 791 87.7 791L69.9 790.9L70.1 806C70.2 820.8 69.8 823.9 68 821.1C67.5 820.1 66 819.9 63.1 820.3C60.4 820.6 59 820.4 59 819.7C59 818.8 58.8 818.8 58.2 819.7C57.7 820.5 56.1 820.6 53.2 820C49.9 819.4 49 819.6 49 820.6C49 821.4 48.5 822 48 822C47.5 822 47 821.3 47 820.5ZM21 816.3C21 815.7 21.4 814.8 22 814.5C22.6 814.2 23 812.8 23 811.6C23 808.3 25.5 806.3 27.5 808C28.3 808.7 29 810.3 29 811.5C29 814.6 26.5 816.6 24.6 815.1C23.5 814.1 22.9 814.3 22.1 815.7C21.5 816.7 21 817 21 816.3ZM7.4 812.8C9.4 808.2 9.4 808.2 7.2 807.7C6.2 807.4 6.5 807.2 8.2 807.1L10.9 807L9.4 810.8C8.5 812.8 7.4 815 6.9 815.5C6.3 816 6.6 814.8 7.4 812.8ZM12.5 815C12.1 814.4 12.1 813.6 12.4 813.3C12.7 812.9 13 813.2 13 813.8C13 814.5 13.9 815 15 815C16.4 815 17 814.3 17 812.9C17 811.3 16.5 810.9 15 811.3C12.9 811.8 12.6 811.2 13.6 808.6C13.9 807.7 15.2 807 16.4 807.1L18.5 807.1L16 808.2L13.5 809.2L15.8 810.1C17.5 810.7 18 811.6 17.8 813.2C17.5 815.7 13.7 816.9 12.5 815ZM32.2 814.8C29.2 811.8 32.3 805.4 35.5 808C38 810 36.8 816 34 816C33.7 816 32.9 815.5 32.2 814.8ZM27.5 811.4C27.5 809.5 27 808.5 26 808.5C24.4 808.5 23.5 811.3 24.4 813.6C25.4 816.1 27.5 814.6 27.5 811.4ZM35.5 811.4C35.5 809.5 35 808.5 34 808.5C32.4 808.5 31.5 811.3 32.4 813.6C33.4 816.1 35.5 814.6 35.5 811.4ZM68 436L68 83L58.5 83L49 83L49 436L49 789L58.5 789L68 789L68 436ZM104.5 786.2C104.1 784.7 103.7 782.5 103.4 781.2C103.2 780 103.4 779 104 779C104.6 779 105 775.4 105 769.9L105 760.8L88.5 761.2L72 761.5L72 775.2L72 789L88.5 789L105 789L104.5 786.2ZM229 775.1L229 761.2L167.5 761.1L106 760.9L106 769.9C106 775.5 106.4 779 107 779C107.7 779 107.8 780.8 107.4 784L106.7 789L167.9 789L229 789L229 775.1ZM257.7 788.4C257.4 788.1 256.5 788 255.8 788.3C255 788.6 255.3 788.9 256.4 788.9C257.5 789 258.1 788.7 257.7 788.4ZM418.7 788.4C418.4 788.1 417.5 788 416.8 788.3C416 788.6 416.3 788.9 417.4 788.9C418.5 789 419.1 788.7 418.7 788.4ZM603 691L603 593L572 593L541 593L541 595C541 596.3 540.3 597 539.1 597C538.1 597 537 596.1 536.7 595L536.2 593L496.1 593L456 593L456 595C456 596.3 455.3 597 454 597C452.7 597 452 596.3 452 595C452 593.4 451.3 593 449 593L446 593L446 690.4L446 787.9L440.8 788.3C437.9 788.5 473.2 788.7 519.2 788.8L603 789L603 691ZM626 436L626 83L616 83L606 83L606 436L606 789L616 789L626 789L626 436ZM672 784.2C671.5 781.6 671.6 779.4 672.1 779.2C673.3 778.7 673.3 92.3 672.1 91.8C671.5 91.6 671.5 89.7 671.9 87.2L672.7 83L650.9 83L629 83L629 436L629 789L650.8 789L672.7 789L672 784.2ZM250 781.8C249.5 779.3 249.6 777.3 250.1 776.9C250.6 776.6 250.9 743.8 250.8 695.5L250.5 614.7L246.5 613.3C241.4 611.5 236.2 606.5 235 602C233.7 597.4 233.7 572.5 235 567.8C235.8 565.1 238.1 562.3 243.5 557.4L251 550.8L251 375.4L251 200L246 200C243.2 200 241 200.4 241 201C241 201.5 240.4 201.8 239.8 201.6C239.1 201.3 237 200.9 235.2 200.6L232 200L232 493L232 786L241.4 786L250.7 786L250 781.8ZM308 757.9L308 729.7L303.5 730.2C301 730.5 299 730.4 299 729.9C299 729.4 297.1 728.9 294.8 728.8L290.5 728.7L294.8 728.3C297.1 728.1 299 727.4 299 726.9C299 726.3 300.7 726.1 303.5 726.6L308.1 727.2L307.8 683.7L307.5 640.1L305.4 637.3C304.1 635.5 300.6 633.4 295.4 631.3C287.4 628.1 285.7 628.2 286.7 632.1L287.2 634L283.9 634C280.5 634 274 630.8 274 629.1C274 628.6 274.7 628 275.5 627.6C279.2 626.2 276.4 624.2 265.2 620.2C258.8 617.9 253.2 616 252.8 616C251.5 616 251.8 777 253.1 777C253.8 777 253.9 778.6 253.4 781.5L252.8 786L280.4 786L308 786L308 757.9ZM357.8 781.5C357.5 779 357.6 777 358.1 777C358.6 777 359 766.2 359 753L359 729L334.5 729L310 729L310 757.5L310 786L334.1 786L358.3 786L357.8 781.5ZM364 757.5L364 729L362 729L360 729L360 753C360 768 360.4 777 361 777C361.6 777 361.7 778.8 361.3 781.5L360.7 786L362.4 786L364 786L364 757.5ZM442 768.4C442 756.4 441.7 751.1 440.9 751.5C439.1 752.7 435.3 751.1 434.7 749.1C433.9 746 436.8 742.7 439.6 743.4L442 744L442 479.7L442 215.3L439 215.8L436 216.2L435.1 213.9C433.8 210.5 435.5 208 439 208L442 208L442 204.1L442 200.3L437.8 201.1C435.3 201.5 433.4 201.5 433.2 200.9C433 200.4 426.8 200 419.4 200L405.9 200L406.2 214.5L406.5 229L410.7 229C413 229 415.1 229.4 415.5 229.9C415.8 230.4 416 290.8 416 364.1L416 497.4L414.7 498.7L413.4 500L337 500C295 500 260.2 499.6 259.8 499.2C258.9 498.3 258.7 231.4 259.5 229.9C259.9 229.4 285.6 229 322.6 229C370.5 229 385 228.7 385 227.8C385 226.9 385.3 226.9 386.2 227.8C386.9 228.5 390.5 229 395.4 229L403.5 229L403.8 214.5L404.1 200L328.1 200L252 200L252 375.1L252 550.2L257.2 545.8C303.6 506.7 304.8 505.8 311.1 504C312.8 503.5 325 503 338.2 503L362 502.9L367.5 505.7C375.2 509.6 436.4 561.2 438.4 565.5C439.7 568.1 440 572.4 440 585.2L440 601.5L438.2 605C435.7 610 432.2 611.9 413.6 618.6C404.5 621.8 397 624.8 397 625.2C397 625.6 397.7 626.5 398.5 627.4C399.3 628.2 400 629.4 400 630C400 631.4 393.9 634 390.5 634L388 634L388 630.9L388 627.8L386.2 628.5C385.3 628.9 382 630.1 379 631.1C372.5 633.4 368.3 637.1 367 641.9C366.4 644 366 662.5 366 686.4L366 727.3L370.5 726.7C373.2 726.3 375 726.4 375 727C375 727.6 377.1 728.1 379.8 728.2L384.5 728.4L379.8 728.7C377.1 728.9 375 729.5 375 729.9C375 730.3 373 730.4 370.5 730L366 729.3L366 757.7L366 786L404 786L442 786L442 768.4ZM105 680.6C105 633.8 104.6 602 104.1 601.8C103.5 601.6 103.5 599.7 103.9 597.2L104.7 593L93.4 593L82 593L82 595C82 596.3 81.3 597 80 597C78.7 597 78 596.3 78 595C78 593.4 77.3 593 75 593L72 593L72 675.8L72 758.6L88.5 758.8L105 759.1L105 680.6ZM229 675.9L229 593L198 593L167 593L167 595C167 596.3 166.3 597 165.1 597C164.1 597 163 596.1 162.7 595L162.2 593L134.5 593L106.8 593L107.4 597.5C107.9 600.4 107.8 602 107.1 602C106.3 602 106 625.8 106 680.5L106 759.1L167.5 759L229 758.8L229 675.9ZM154 757.1C154 756.5 154.4 755.8 155 755.5C155.6 755.2 155.7 755.6 155.4 756.4C154.7 758.2 154 758.5 154 757.1ZM131.5 756C131.1 755.4 131.1 754.6 131.4 754.3C131.7 753.9 132 754.2 132 754.8C132 755.5 132.9 756 134 756C135.4 756 136 755.3 136 753.9C136 752.3 135.5 751.9 134 752.3C131.9 752.8 131.6 752.2 132.6 749.6C132.9 748.7 134.2 748 135.4 748.1L137.5 748.1L135 749.2L132.5 750.2L134.8 751.1C136.5 751.7 137 752.6 136.8 754.2C136.5 756.7 132.7 757.9 131.5 756ZM138.5 756C138.1 755.4 138.1 754.6 138.4 754.3C138.7 753.9 139 754.2 139 754.8C139 755.5 139.9 756 141 756C142.4 756 143 755.3 143 753.9C143 752.3 142.5 751.9 141 752.3C138.9 752.8 138.6 752.2 139.6 749.6C139.9 748.7 141.2 748 142.4 748.1L144.5 748.1L142 749.2L139.5 750.2L141.8 751.1C143.5 751.7 144 752.6 143.8 754.2C143.5 756.7 139.7 757.9 138.5 756ZM148.8 754.9L150.1 753.3L148 752.7C144.9 751.9 145.8 748.5 149 748.5C152.3 748.5 152.7 751.2 149.8 754.2C148.5 755.5 148.1 755.8 148.8 754.9ZM157.5 756C157.1 755.4 157.1 754.6 157.4 754.3C157.7 753.9 158 754.2 158 754.8C158 755.5 158.9 756 160 756C161.4 756 162 755.3 162 753.9C162 752.3 161.5 751.9 160 752.3C157.9 752.8 157.6 752.2 158.6 749.6C158.9 748.7 160.2 748 161.4 748.1L163.5 748.1L161 749.2L158.5 750.2L160.8 751.1C162.5 751.7 163 752.6 162.8 754.2C162.5 756.7 158.7 757.9 157.5 756ZM165.2 755.8C162.2 752.8 165.3 746.4 168.5 749C171 751 169.8 757 167 757C166.7 757 165.9 756.5 165.2 755.8ZM168.5 752.4C168.5 750.5 168 749.5 167 749.5C165.4 749.5 164.5 752.3 165.4 754.6C166.4 757.1 168.5 755.6 168.5 752.4ZM151 750.5C151 749.7 150.1 749 149 749C147.9 749 147 749.7 147 750.5C147 751.3 147.9 752 149 752C150.1 752 151 751.3 151 750.5ZM359 659.9L359 591.9L305.5 592.1L252 592.2L252.1 598.4C252.2 601.7 252.4 603.8 252.7 602.8C253.6 599.3 258 599.5 258 603.1C258 604.4 257.3 605 255.6 605C253.1 605 252 606.6 252 610.4L252 612.7L275.2 621C303.1 631 305.2 632 307.9 636.3L310 639.7L310 683.9L310 728L334.5 728L359 728L359 659.9ZM364 685C364 638.9 364.1 637.9 369.1 633.3C370.5 632.1 383.9 626.6 400.4 620.7C431 609.6 433.5 608.3 436.2 602.9L438 599.5L438 585.2C438 575.4 437.6 569.9 436.6 567.7C435.7 565.4 426.2 556.8 404.7 538.7C373.2 512.3 367.2 507.7 363.1 506.5L360.7 505.8L361.4 509.9C361.8 512.4 361.6 514 361 514C360.3 514 360 527.1 360 552.1L360 590.1L391.8 590C424.6 589.8 428.4 589.4 429.4 585.7C430.1 583 433.4 583.9 433.8 586.9L434.2 589.3L431.8 588.8L429.3 588.3L429.8 590.7C430.1 592.2 430.9 593 432.2 593C433.6 593 434.1 593.6 433.8 595.2C433.6 596.9 432.9 597.5 431.2 597.4C429.5 597.4 429 597.9 429 599.7C429 601.7 428.5 602.1 426.8 601.8C425.3 601.6 424.5 600.8 424.5 599.5C424.5 598.2 425.3 597.4 426.8 597.2C428.2 597 429 596.2 429 594.9C429 592.8 426.5 592.3 425.7 594.2C425.3 595.1 425.1 594.9 425.1 593.9L425 592.3L392.5 592.1L360 591.9L360 659.9L360 728L362 728L364 728L364 685ZM332.8 720.5C332.6 718 332.8 716 333.2 716C333.7 716 334 718 334 720.5C334 723 333.8 725 333.6 725C333.4 725 333 723 332.8 720.5ZM339.8 722.9L341.1 721.3L339 720.7C335.9 719.9 336.8 716.5 340 716.5C343.3 716.5 343.7 719.2 340.8 722.2C339.5 723.5 339.1 723.8 339.8 722.9ZM344.5 724C343.5 722.5 344.8 719.5 347.3 717.4L349.5 715.5L347.7 717.6L345.9 719.7L348 720.3C349.4 720.7 350.1 721.5 349.8 722.7C349.4 724.7 345.6 725.7 344.5 724ZM349 722.5C349 721.7 348.1 721 347 721C345.9 721 345 721.7 345 722.5C345 723.3 345.9 724 347 724C348.1 724 349 723.3 349 722.5ZM342 718.5C342 717.7 341.1 717 340 717C338.9 717 338 717.7 338 718.5C338 719.3 338.9 720 340 720C341.1 720 342 719.3 342 718.5ZM96.8 709.8C95.5 708.5 95.2 708.1 96.1 708.8L97.7 710.1L98.3 708C99.1 704.9 102.5 705.8 102.5 709C102.5 712.3 99.8 712.7 96.8 709.8ZM102 709C102 707.9 101.3 707 100.5 707C99.7 707 99 707.9 99 709C99 710.1 99.7 711 100.5 711C101.3 711 102 710.1 102 709ZM94.4 703.5C92.7 699.1 96.5 697.7 100.2 701.2C101.5 702.5 101.8 702.9 100.9 702.2L99.3 700.9L98.7 703C98.1 705.3 95.2 705.7 94.4 703.5ZM98 702C98 700.9 97.3 700 96.5 700C95.7 700 95 700.9 95 702C95 703.1 95.7 704 96.5 704C97.3 704 98 703.1 98 702ZM94.1 694.8L94 692.1L97.8 693.6C99.8 694.5 102 695.6 102.5 696.1C103 696.7 101.8 696.4 99.8 695.6C95.2 693.6 95.2 693.6 94.7 695.8C94.4 696.8 94.2 696.5 94.1 694.8ZM101 687.5C100.1 686.5 100.1 686 100.9 686C101.5 686 102 685.1 102 684C102 682.6 101.3 682 99.9 682C98.3 682 97.9 682.5 98.3 684C98.6 685.3 98.3 686 97.4 686C96.4 686 96.3 685.4 96.9 683.8C97.4 682.3 98.6 681.5 100.1 681.5L102.5 681.5L102.4 684.5C102.4 686.1 102.8 687.8 103.4 688.2C104.2 688.8 104.2 689 103.4 689C102.8 689 101.7 688.3 101 687.5ZM94 683C94 681.9 94.2 681 94.4 681C94.6 681 95 681.9 95.3 683C95.6 684.1 95.4 685 94.9 685C94.4 685 94 684.1 94 683ZM348 679.8C348 679.4 350.1 679 352.8 679.1C358 679.2 357.6 679.7 351.8 680.2C349.7 680.4 348 680.2 348 679.8ZM95 677.5C93.4 675.5 95.3 673 98.5 673C99.7 673 101.3 673.7 102 674.5C103.6 676.5 101.7 679 98.5 679C97.3 679 95.7 678.3 95 677.5ZM101.5 676C101.5 674.2 97.2 673.4 95.8 674.8C94.2 676.4 96 678.1 98.8 677.8C100.4 677.6 101.5 676.9 101.5 676ZM349 674.5C347.4 672.5 349.3 670 352.5 670C355.7 670 357.6 672.5 356 674.5C355.3 675.3 353.7 676 352.5 676C351.3 676 349.7 675.3 349 674.5ZM355.5 673C355.5 671.2 351.2 670.4 349.8 671.8C348.2 673.4 350 675.1 352.8 674.8C354.4 674.6 355.5 673.9 355.5 673ZM349 667.5C347.4 665.5 349.3 663 352.5 663C355.7 663 357.6 665.5 356 667.5C355.3 668.3 353.7 669 352.5 669C351.3 669 349.7 668.3 349 667.5ZM355.5 666C355.5 664.2 351.2 663.4 349.8 664.8C348.2 666.4 350 668.1 352.8 667.8C354.4 667.6 355.5 666.9 355.5 666ZM349 659.5C347.4 657.5 349.3 655 352.5 655C355.7 655 357.6 657.5 356 659.5C355.3 660.3 353.7 661 352.5 661C351.3 661 349.7 660.3 349 659.5ZM355.5 658C355.5 656.2 351.2 655.4 349.8 656.8C348.2 658.4 350 660.1 352.8 659.8C354.4 659.6 355.5 658.9 355.5 658ZM304.2 625.8C304.4 624.3 305.2 623.5 306.5 623.5C309.5 623.5 309.2 627.4 306.2 627.8L303.8 628.2L304.2 625.8ZM366 626C366 625 366.6 623.7 367.2 623.3C367.9 622.9 368.5 621.6 368.5 620.5C368.5 619.2 369.3 618.4 370.8 618.2L373 617.9L373 620.4C373 621.9 372.4 623 371.6 623C370.7 623 370.4 623.8 370.8 625.5L371.2 628L368.6 628C366.7 628 366 627.5 366 626ZM296.2 622.6C296.6 620.8 296.2 620 294.8 619.7C293.8 619.4 293 619.7 293 620.5C293 622 290.3 623.3 288.9 622.4C288.4 622.1 288 621 288 619.9C288 618.1 289 617.6 291.6 617.9C292.3 618 293 617.4 293.4 616.5C294.4 613.9 298 614.6 298 617.4C298 620.5 300 621.8 301.2 619.6C302.6 617 306.2 617.5 305.8 620.2C305.6 621.9 304.9 622.5 303.2 622.4C302 622.4 301 622.9 301 623.7C301 624.4 299.9 625 298.4 625L295.8 625L296.2 622.6ZM374 623C374 622 374.6 620.7 375.2 620.3C375.9 619.9 376.5 618.6 376.5 617.5C376.5 616.2 377.3 615.4 378.8 615.2L381 614.9L381 617.4C381 619.4 380.5 620 378.8 620.1C377.5 620.1 377.1 620.4 377.8 620.7C380.2 621.6 379.2 625 376.5 625C374.7 625 374 624.5 374 623ZM382.7 622.3C381.6 621.2 381.9 618.2 383.2 617.3C383.9 616.9 384.5 615.6 384.5 614.5C384.5 613.2 385.3 612.4 386.8 612.2L389 611.9L389 614.4C389 616.4 388.5 617 386.8 617.1C385.5 617.1 385.1 617.4 385.8 617.7C387.5 618.4 387.3 621.7 385.4 622.4C383.5 623.1 383.5 623.1 382.7 622.3ZM280.7 619.3C280.3 619 280 617.8 280 616.8C280 614.5 283.8 614.3 284.7 616.6C285.5 618.7 282.3 620.9 280.7 619.3ZM390.7 619.4C389 617.7 390 614.9 392.2 615.2C393.7 615.4 394.5 616.2 394.5 617.5C394.5 619.5 392 620.7 390.7 619.4ZM272.7 616.4C271 614.7 272 611.9 274.2 612.2C275.7 612.4 276.5 613.2 276.5 614.5C276.5 616.5 274 617.7 272.7 616.4ZM285.4 615.5C284.6 613.5 285.8 612 288.1 612C289.5 612 290 612.7 290 614.5C290 617.3 286.4 618.1 285.4 615.5ZM398.7 616.4C397 614.7 398 611.9 400.2 612.2C401.7 612.4 402.5 613.2 402.5 614.5C402.5 616.5 400 617.7 398.7 616.4ZM264.7 613.4C263 611.7 264 608.9 266.2 609.2C267.7 609.4 268.5 610.2 268.5 611.5C268.5 613.5 266 614.7 264.7 613.4ZM277.3 612.4C277 611.6 277.2 610.4 277.8 609.8C279.4 608.2 282 609.6 282 612C282 614.4 278.2 614.8 277.3 612.4ZM392.3 612.4C392 611.6 392.2 610.4 392.8 609.8C394.4 608.2 397 609.6 397 612C397 614.4 393.2 614.8 392.3 612.4ZM406.7 613.4C405 611.7 406 608.9 408.2 609.2C409.7 609.4 410.5 610.2 410.5 611.5C410.5 613.5 408 614.7 406.7 613.4ZM251 610C251 608.9 250.3 608 249.5 608C248.6 608 248 607.1 248 605.5C248 603.9 248.6 603 249.5 603C250.7 603 251 601.7 251 597.5C251 594.3 250.6 592 249.9 592C249.4 592 249.1 592.4 249.5 592.9C249.8 593.4 249.6 594.1 249 594.5C248.5 594.8 248 594.6 248 594.1C248 593.5 247.3 593 246.5 593C245.7 593 245 592.1 245 591.1C245 589.8 244.2 589 242.8 588.8C241.3 588.6 240.5 587.8 240.5 586.5C240.5 585.2 241.3 584.4 242.8 584.2C244.2 584 245 583.2 245 581.9C245 580.4 245.6 579.9 247.2 580.2C248.7 580.4 249.5 581.2 249.5 582.5C249.5 583.8 248.7 584.6 247.2 584.8C245.8 585 245 585.8 245 587C245 588.3 245.5 588.7 246.5 588.4C247.3 588 248.7 588.3 249.5 589L251 590.2L251 580.3C251 573.8 250.6 570 249.8 569.2C248.8 568.2 248.8 567.5 249.7 566.1C250.3 565.1 250.5 563.7 250 563C249.5 562.2 249.6 560.8 250.1 559.8C250.7 558.7 251 557.2 250.8 556.2C250.6 555 248.8 556.2 244 560.7L237.5 566.8L237.2 583.9L236.9 601L239 604.4C240.1 606.3 243 608.8 245.3 609.9C250.5 612.5 251 612.5 251 610ZM256 608.5L256 605.9L258.2 606.2C259.7 606.4 260.5 607.2 260.5 608.5C260.5 609.8 259.7 610.6 258.2 610.8L256 611.1L256 608.5ZM269.3 609.4C269 608.6 269.2 607.4 269.8 606.8C271.4 605.2 274 606.6 274 609C274 611.4 270.2 611.8 269.3 609.4ZM400.3 609.4C400 608.6 400.2 607.4 400.8 606.8C402.4 605.2 405 606.6 405 609C405 611.4 401.2 611.8 400.3 609.4ZM414.7 610.4C413 608.7 414 605.9 416.2 606.2C417.7 606.4 418.5 607.2 418.5 608.5C418.5 610.5 416 611.7 414.7 610.4ZM261.3 606.4C261 605.6 261.2 604.4 261.8 603.8C263.4 602.2 266 603.6 266 606C266 608.4 262.2 608.8 261.3 606.4ZM408.3 606.4C408 605.6 408.2 604.4 408.8 603.8C410.4 602.2 413 603.6 413 606C413 608.4 409.2 608.8 408.3 606.4ZM422 605.5L422 602.9L424.2 603.2C425.7 603.4 426.5 604.2 426.5 605.5C426.5 606.8 425.7 607.6 424.2 607.8L422 608.1L422 605.5ZM416.3 603.4C415.7 601.7 417.7 599.8 419.5 600.3C420.1 600.5 420.6 601.6 420.8 602.8C421.2 605.5 417.3 606 416.3 603.4ZM245.4 600.5C244.6 598.5 245.8 597 248.1 597C249.5 597 250 597.7 250 599.5C250 602.3 246.4 603.1 245.4 600.5ZM241.1 596.6C239.5 594.7 240.5 593 243.1 593C244.6 593 245.1 593.6 244.8 595.2C244.4 597.9 242.7 598.5 241.1 596.6ZM228 590C228 589.3 201.6 589 150 589C99.6 589 72 589.3 72 590C72 590.6 99.6 591 150 591C201.6 591 228 590.7 228 590ZM602 590C602 589.3 575.3 589 524 589C472.7 589 446 589.3 446 590C446 590.7 472.7 591 524 591C575.3 591 602 590.7 602 590ZM359 552C359 530.9 358.6 514 358.1 514C357.6 514 357.5 511.9 357.8 509.4L358.3 504.8L335.4 505.2L312.5 505.5L308.3 507.7C300.9 511.7 252.5 552.9 252.2 555.6C251.8 558.8 254 560.9 257.2 560.3C260.4 559.7 261.8 561.7 259.6 563.8L258.1 565.4L256.3 563.8L254.5 562.2L253.3 563.5C252.4 564.4 252.4 565 253.3 565.9C254.2 566.8 254.1 567.5 253.2 569C252.5 570.2 252 574.7 252 580.4L252 589.8L305.5 589.9L359 590.1L359 552ZM323.5 587C322.5 585.5 323.8 582.5 326.3 580.4L328.5 578.5L326.7 580.6L324.9 582.7L327 583.3C328.4 583.7 329.1 584.5 328.8 585.7C328.4 587.7 324.6 588.7 323.5 587ZM333.3 585.2C337.2 581.1 336.1 577.6 332 581.2L330.6 582.5L331.9 580.8C332.6 579.8 333.9 579 334.7 579C337.1 579 337.3 582 335 584.5L332.8 586.8L335.2 587.3C336.9 587.6 336.6 587.8 334.1 587.9L330.6 588L333.3 585.2ZM342 587.3C342 586.7 341.1 586 340.1 585.8L338.2 585.5L340.5 582.2L342.8 578.9L343.2 582.5C343.4 584.4 343.2 586.6 342.8 587.3C342.2 588.2 342 588.2 342 587.3ZM328 585.5C328 584.7 327.1 584 326 584C324.9 584 324 584.7 324 585.5C324 586.3 324.9 587 326 587C327.1 587 328 586.3 328 585.5ZM342 583.5C342 582.7 341.8 582 341.6 582C341.4 582 341 582.7 340.6 583.5C340.3 584.3 340.5 585 341 585C341.6 585 342 584.3 342 583.5ZM425.7 584.4C424.2 582.8 425 580 427 580C428.3 580 429 579.3 429 578C429 576.6 428.3 576 426.9 576C425.4 576 424.9 575.5 425.2 573.8C425.4 572.3 426.2 571.5 427.5 571.5C428.8 571.5 429.6 572.3 429.8 573.8C430 575.2 430.8 576 432.1 576C433.6 576 434.1 576.6 433.8 578.2C433.6 579.8 432.8 580.5 431.4 580.4C430 580.4 429.4 581 429.4 582.4C429.5 584.4 427 585.7 425.7 584.4ZM93.1 583L104.7 583L104 578.5C103.6 576 103.7 574 104.2 574C104.6 574 105 573.1 105 571.9L105 569.9L89.5 570.2L74 570.5L74 577.4L74 584.3L77.8 583.6C79.8 583.3 86.7 583 93.1 583ZM226 577.1L226 570.2L166 570.1L106 569.9L106 572C106 573.1 106.5 574 107.1 574C107.8 574 107.9 575.6 107.4 578.5L106.8 583L164.6 583.3C196.5 583.4 223.3 583.6 224.2 583.8L226 584L226 577.1ZM601 485.8L601 388L524.5 388L448 388L448 485.8L448 583.5L524.5 583.5L601 583.5L601 485.8ZM241.1 579.6C239.5 577.7 240.5 576 243 576C244.2 576 245 575.2 245.2 573.8C245.4 572.3 246.2 571.5 247.5 571.5C250.4 571.5 250.2 575.4 247.3 575.8C246 576 245 577 244.8 578.2C244.4 580.9 242.7 581.5 241.1 579.6ZM242.4 568.5C241.6 566.5 242.8 565 245.1 565C246.5 565 247 565.7 247 567.5C247 570.3 243.4 571.1 242.4 568.5ZM420.7 568.7C419.9 566.6 421.5 564.8 423.6 565.2C426.3 565.7 426.1 569.4 423.4 569.8C422.2 570 421 569.5 420.7 568.7ZM427.3 568.4C427 567.6 427.2 566.4 427.8 565.8C429.4 564.2 432 565.6 432 568C432 570.4 428.2 570.8 427.3 568.4ZM105 483.1C105 434.4 104.6 398 104.1 397.8C103.6 397.6 103.5 395.4 104 392.8L104.7 388L89.3 388L74 388L74 477.8L74 567.6L89.5 567.8L105 568.1L105 483.1ZM226 477.9L226 388L166.4 388L106.7 388L107.4 393C107.8 396.2 107.7 398 107 398C106.3 398 106 425.1 106 483L106 568.1L166 567.9L226 567.8L226 477.9ZM146.5 565C146.1 564.4 146.1 563.6 146.4 563.3C146.7 562.9 147 563.2 147 563.8C147 564.5 147.9 565 149 565C150.4 565 151 564.3 151 562.9C151 561.3 150.5 560.9 149 561.3C146.9 561.8 146.6 561.2 147.6 558.6C147.9 557.7 149.2 557 150.4 557.1L152.5 557.1L150 558.2L147.5 559.2L149.8 560.1C151.5 560.7 152 561.6 151.8 563.2C151.5 565.7 147.7 566.9 146.5 565ZM157 565.3C157 564.7 156.1 564 155.1 563.8L153.2 563.5L155.5 560.2L157.8 556.9L158.2 560.5C158.4 562.4 158.2 564.6 157.8 565.3C157.2 566.2 157 566.2 157 565.3ZM164 565.3C164 564.7 163.1 564 162.1 563.8L160.2 563.5L162.5 560.2L164.8 556.9L165.2 560.5C165.4 562.4 165.2 564.6 164.8 565.3C164.2 566.2 164 566.2 164 565.3ZM414.7 564.4C412.9 562.6 414.1 560 416.6 560L419.1 560L418.8 562.2C418.5 564.5 416.1 565.7 414.7 564.4ZM420.4 562.5C420 561.6 420.2 560.4 420.8 559.8C422.3 558.3 425.2 559.7 424.8 561.7C424.4 564 421.2 564.6 420.4 562.5ZM157 561.5C157 560.7 156.8 560 156.6 560C156.4 560 156 560.7 155.6 561.5C155.3 562.3 155.5 563 156 563C156.6 563 157 562.3 157 561.5ZM164 561.5C164 560.7 163.8 560 163.6 560C163.4 560 163 560.7 162.6 561.5C162.3 562.3 162.5 563 163 563C163.6 563 164 562.3 164 561.5ZM256.7 558.4C254.9 556.6 256.1 554 258.6 554L261.1 554L260.8 556.2C260.5 558.5 258.1 559.7 256.7 558.4ZM262.3 557.4C262 556.6 262.2 555.4 262.8 554.8C264.4 553.2 267 554.6 267 557C267 559.4 263.2 559.8 262.3 557.4ZM407.6 558.1C407.2 557.6 407.3 556.5 407.6 555.6C408.3 553.7 412 553.4 412 555.2C412 556.1 412.3 556.1 413.2 555.2C414.7 553.7 417.7 553.6 418.6 555.1C419.7 557 416.4 559.6 414.6 558.1C413.6 557.3 413 557.2 412.5 558C411.7 559.2 408.3 559.3 407.6 558.1ZM269.5 553C269.2 552.4 267.7 552.3 266.3 552.6C263.6 553.3 261.8 551.7 262.7 549.3C263.3 547.8 267 547.5 267 549C267 549.5 268.3 549.7 269.9 549.4C273.2 548.7 274.8 550.4 273 552.5C271.6 554.2 270.4 554.4 269.5 553ZM401.7 553.4C399.9 551.6 401.1 549 403.6 549L406.1 549L405.8 551.2C405.5 553.5 403.1 554.7 401.7 553.4ZM407.2 550.8C407.4 549.3 408.2 548.5 409.5 548.5C412.5 548.5 412.2 552.4 409.2 552.8L406.8 553.2L407.2 550.8ZM269.7 547.4C267.9 545.6 269.1 543 271.6 543L274.1 543L273.8 545.2C273.5 547.5 271.1 548.7 269.7 547.4ZM275.2 545.8C275.4 544.3 276.2 543.5 277.5 543.5C278.8 543.5 279.6 544.3 279.8 545.8L280.1 548L277.5 548L274.9 548L275.2 545.8ZM394.6 547.1C393.6 545.5 395.1 543 397.1 543C398.5 543 399 543.7 399 545.5C399 548 395.8 549.2 394.6 547.1ZM401.1 546.6C399.5 544.7 400.5 543 403.1 543C404.6 543 405.1 543.6 404.8 545.2C404.4 547.9 402.7 548.5 401.1 546.6ZM282.5 542C282.2 541.5 280.6 541.3 279.1 541.6C276 542.3 274.6 541.1 275.6 538.6C276.3 536.9 279.5 536.4 280.4 537.9C280.7 538.3 282 538.5 283.4 538.3C286.2 537.7 287.7 539.5 286 541.5C284.6 543.2 283.4 543.4 282.5 542ZM388.7 542.4C386.9 540.6 388.1 538 390.6 538L393.1 538L392.8 540.2C392.5 542.5 390.1 543.7 388.7 542.4ZM394.2 539.8C394.4 538.3 395.2 537.5 396.5 537.5C397.8 537.5 398.6 538.3 398.8 539.8L399.1 542L396.5 542L393.9 542L394.2 539.8ZM282.7 536.4C280.9 534.6 282.1 532 284.6 532L287.1 532L286.8 534.2C286.5 536.5 284.1 537.7 282.7 536.4ZM288.3 535.4C288 534.6 288.2 533.4 288.8 532.8C290.4 531.2 293 532.6 293 535C293 537.4 289.2 537.8 288.3 535.4ZM381.6 536.1C380.6 534.5 382.1 532 384.1 532C385.5 532 386 532.7 386 534.5C386 537 382.8 538.2 381.6 536.1ZM388.1 535.6C386.5 533.7 387.5 532 390.1 532C391.6 532 392.1 532.6 391.8 534.2C391.4 536.9 389.7 537.5 388.1 535.6ZM295.7 531.3C294.2 529.9 295 527 296.9 527C299.3 527 300.2 528.3 299.4 530.4C298.8 532 296.9 532.5 295.7 531.3ZM375.7 531.4C373.9 529.6 375.1 527 377.6 527L380.1 527L379.8 529.2C379.5 531.5 377.1 532.7 375.7 531.4ZM289.2 528.8C289.6 526.1 292.5 525.2 293.4 527.5C294.2 529.7 293.3 531 290.9 531C289.4 531 288.9 530.4 289.2 528.8ZM381.2 528.8C381.4 527.3 382.2 526.5 383.5 526.5C384.8 526.5 385.6 527.3 385.8 528.8L386.1 531L383.5 531L380.9 531L381.2 528.8ZM295.4 524.6C294.6 522.5 295.7 521 298.1 521C299.6 521 300.1 521.6 299.8 523.2C299.4 525.9 296.3 526.9 295.4 524.6ZM301.2 523.8C301.4 522.3 302.2 521.5 303.5 521.5C304.8 521.5 305.6 522.3 305.8 523.8L306.1 526L303.5 526L300.9 526L301.2 523.8ZM368.4 524.9C367.6 523.5 370.5 520.6 371.9 521.4C373.8 522.6 373.2 526 371.1 526C370 526 368.8 525.5 368.4 524.9ZM374.4 524.5C373.6 522.5 374.8 521 377.1 521C378.5 521 379 521.7 379 523.5C379 526.3 375.4 527.1 374.4 524.5ZM96.8 520.8C95.5 519.5 95.2 519.1 96.1 519.8L97.7 521.1L98.3 519C99.1 515.9 102.5 516.8 102.5 520C102.5 523.3 99.8 523.7 96.8 520.8ZM102 520C102 518.9 101.3 518 100.5 518C99.7 518 99 518.9 99 520C99 521.1 99.7 522 100.5 522C101.3 522 102 521.1 102 520ZM302.2 517.8C302.4 516.3 303.2 515.5 304.5 515.5C307.5 515.5 307.2 519.4 304.2 519.8L301.8 520.2L302.2 517.8ZM368.2 517.8C368.4 516.3 369.2 515.5 370.5 515.5C371.8 515.5 372.6 516.3 372.8 517.8L373.1 520L370.5 520L367.9 520L368.2 517.8ZM94.4 513.5C92.7 509.1 96.5 507.7 100.2 511.2C101.5 512.5 101.8 512.9 100.9 512.2L99.3 510.9L98.7 513C98.1 515.3 95.2 515.7 94.4 513.5ZM98 512C98 510.9 97.3 510 96.5 510C95.7 510 95 510.9 95 512C95 513.1 95.7 514 96.5 514C97.3 514 98 513.1 98 512ZM97.2 505.5L93.9 503.2L97.5 502.8C99.4 502.6 101.6 502.8 102.3 503.2C103.2 503.8 103.2 504 102.3 504C101.7 504 101 504.9 100.8 505.9L100.5 507.8L97.2 505.5ZM100 505C100 504.4 99.2 504 98.2 504L96.5 504L98 505C99.9 506.2 100 506.2 100 505ZM101.5 499C101.2 498.4 101.6 498.3 102.4 498.6C104.2 499.3 104.5 500 103.1 500C102.5 500 101.8 499.6 101.5 499ZM385 391.5L385.1 285L327.5 285C290.6 285 270 285.4 270 286C270 286.6 268.2 286.7 265.5 286.3L261 285.7L261 391.2C261 449.2 261.3 497 261.7 497.3C262 497.7 289.9 498 323.6 498L384.9 498L385 391.5ZM413.8 391.6L414 285.7L409.5 286.3C406.8 286.7 405 286.6 405 286C405 285.4 401.2 285 396 285L387 285L387 391.5L387.1 498.1L400.3 497.8L413.5 497.5L413.8 391.6ZM94 493.8C94 493.4 96.1 493 98.8 493.1C104 493.2 103.6 493.7 97.8 494.2C95.7 494.4 94 494.2 94 493.8ZM101 489.3C103 488.4 102.1 485 99.9 485C98.3 485 97.9 485.5 98.3 487C98.6 488.3 98.3 489 97.4 489C96.4 489 96.3 488.4 96.9 486.8C98.1 483.5 102.5 483.6 102.5 486.9C102.5 488.2 101.9 489.4 101.2 489.6C100.5 489.7 100.4 489.6 101 489.3ZM94 486C94 484.9 94.2 484 94.4 484C94.6 484 95 484.9 95.3 486C95.6 487.1 95.4 488 94.9 488C94.4 488 94 487.1 94 486ZM241 458.5C239.6 456.8 240.4 454 242.3 454C243.1 454 244.5 454.9 245.6 456.1L247.5 458.2L248.1 455.8L248.8 453.5L248.9 456.9L249 460.4L246.2 457.7C244.7 456.2 242.9 455 242.2 455C240.7 455 240.7 457.3 242.2 458.8C242.9 459.5 243.1 460 242.8 460C242.5 460 241.7 459.3 241 458.5ZM243.2 449.5L239.9 447.2L243.5 446.8C245.4 446.6 247.6 446.8 248.3 447.2C249.2 447.8 249.2 448 248.3 448C247.7 448 247 448.9 246.8 449.9L246.5 451.8L243.2 449.5ZM246 449C246 448.4 245.2 448 244.2 448L242.5 448L244 449C245.9 450.2 246 450.2 246 449ZM240.4 443.5C238.7 439.1 242.5 437.7 246.2 441.2C247.5 442.5 247.8 442.9 246.9 442.2L245.3 440.9L244.7 443C244.1 445.3 241.2 445.7 240.4 443.5ZM244 442C244 440.9 243.3 440 242.5 440C241.7 440 241 440.9 241 442C241 443.1 241.7 444 242.5 444C243.3 444 244 443.1 244 442ZM241 436.5C239.4 434.5 241.3 432 244.5 432C245.7 432 247.3 432.7 248 433.5C249.6 435.5 247.7 438 244.5 438C243.3 438 241.7 437.3 241 436.5ZM247.5 435C247.5 433.2 243.2 432.4 241.8 433.8C240.2 435.4 242 437.1 244.8 436.8C246.4 436.6 247.5 435.9 247.5 435ZM663 406.5C661.6 404.8 662.4 402 664.3 402C665.1 402 666.5 402.9 667.6 404.1L669.5 406.2L670.1 403.8L670.8 401.5L670.9 404.9L671 408.4L668.2 405.7C666.7 404.2 664.9 403 664.2 403C662.7 403 662.7 405.3 664.2 406.8C664.9 407.5 665.1 408 664.8 408C664.5 408 663.7 407.3 663 406.5ZM665.2 397.5L661.9 395.2L665.5 394.8C667.4 394.6 669.6 394.8 670.3 395.2C671.2 395.8 671.2 396 670.3 396C669.7 396 669 396.9 668.8 397.9L668.5 399.8L665.2 397.5ZM668 397C668 396.4 667.2 396 666.2 396L664.5 396L666 397C667.9 398.2 668 398.2 668 397ZM662.4 391.5C660.7 387.1 664.5 385.7 668.2 389.2C669.5 390.5 669.8 390.9 668.9 390.2L667.3 388.9L666.7 391C666.1 393.3 663.2 393.7 662.4 391.5ZM666 390C666 388.9 665.3 388 664.5 388C663.7 388 663 388.9 663 390C663 391.1 663.7 392 664.5 392C665.3 392 666 391.1 666 390ZM664.8 383.8C663.5 382.5 663.2 382.1 664.1 382.8L665.7 384.1L666.3 382C667.1 378.9 670.5 379.8 670.5 383C670.5 386.3 667.8 386.7 664.8 383.8ZM104 380.5C103.6 378 103.7 376 104.2 376C104.6 376 105 371.2 105 365.4L105 354.8L88.5 355.2L72 355.5L72 370.2L72 385L88.3 385L104.7 385L104 380.5ZM226 370.1L226 355.2L166 355.1L106 354.9L106 365.4C106 371.7 106.4 376 107 376C107.6 376 107.7 377.8 107.3 380.5L106.7 385L166.4 385L226 385L226 370.1ZM603 234L603 83L526 83L449 83L449 234L449 385L526 385L603 385L603 234ZM670 383C670 381.9 669.3 381 668.5 381C667.7 381 667 381.9 667 383C667 384.1 667.7 385 668.5 385C669.3 385 670 384.1 670 383ZM374.4 382.5C372.7 378.1 376.5 376.7 380.2 380.2C381.5 381.5 381.8 381.9 380.9 381.2L379.3 379.9L378.7 382C378.1 384.3 375.2 384.7 374.4 382.5ZM378 381C378 379.9 377.3 379 376.5 379C375.7 379 375 379.9 375 381C375 382.1 375.7 383 376.5 383C377.3 383 378 382.1 378 381ZM381 375.3C383 374.4 382.1 371 379.9 371C378.3 371 377.9 371.5 378.3 373C378.6 374.3 378.3 375 377.4 375C376.4 375 376.3 374.4 376.9 372.8C378.1 369.5 382.5 369.6 382.5 372.9C382.5 374.2 381.9 375.4 381.2 375.6C380.5 375.7 380.4 375.6 381 375.3ZM374 372C374 370.9 374.2 370 374.4 370C374.6 370 375 370.9 375.3 372C375.6 373.1 375.4 374 374.9 374C374.4 374 374 373.1 374 372ZM375 367.5C373.4 365.5 375.3 363 378.5 363C379.7 363 381.3 363.7 382 364.5C383.6 366.5 381.7 369 378.5 369C377.3 369 375.7 368.3 375 367.5ZM381.5 366C381.5 364.2 377.2 363.4 375.8 364.8C374.2 366.4 376 368.1 378.8 367.8C380.4 367.6 381.5 366.9 381.5 366ZM105 222.5C105 150.7 104.6 92 104.2 92C103.7 92 103.6 90 104 87.5L104.7 83L88.3 83L72 83L72 217.8L72 352.7L88.5 352.9L105 353.1L105 222.5ZM226 217.9L226 83L166.4 83L106.8 83L107.4 87.5C107.9 90.4 107.8 92 107.1 92C106.3 92 106 131.2 106 222.5L106 353.1L166 353L226 352.8L226 217.9ZM149 351.1C149 350.5 149.4 349.8 150 349.5C150.6 349.2 150.7 349.6 150.4 350.4C149.7 352.2 149 352.5 149 351.1ZM126.5 350C126.1 349.4 126.1 348.6 126.4 348.3C126.7 347.9 127 348.2 127 348.8C127 349.5 127.9 350 129 350C130.4 350 131 349.3 131 347.9C131 346.3 130.5 345.9 129 346.3C126.9 346.8 126.6 346.2 127.6 343.6C127.9 342.7 129.2 342 130.4 342.1L132.5 342.1L130 343.2L127.5 344.2L129.8 345.1C131.5 345.7 132 346.6 131.8 348.2C131.5 350.7 127.7 351.9 126.5 350ZM137 350.3C137 349.7 136.1 349 135.1 348.8L133.2 348.5L135.5 345.2L137.8 341.9L138.2 345.5C138.4 347.4 138.2 349.6 137.8 350.3C137.2 351.2 137 351.2 137 350.3ZM141.5 349.8C141.2 349.1 141.1 347.1 141.3 345.5L141.5 342.5L144 342.5L146.5 342.5L146.5 346.5L146.5 350.5L144.2 350.8C143 351 141.8 350.5 141.5 349.8ZM152.5 350C152.1 349.4 152.1 348.6 152.4 348.3C152.7 347.9 153 348.2 153 348.8C153 349.5 153.9 350 155 350C156.4 350 157 349.3 157 347.9C157 346.3 156.5 345.9 155 346.3C152.9 346.8 152.6 346.2 153.6 343.6C153.9 342.7 155.2 342 156.4 342.1L158.5 342.1L156 343.2L153.5 344.2L155.8 345.1C157.5 345.7 158 346.6 157.8 348.2C157.5 350.7 153.7 351.9 152.5 350ZM160.2 349.8C157.2 346.8 160.3 340.4 163.5 343C166 345 164.8 351 162 351C161.7 351 160.9 350.5 160.2 349.8ZM146 348C146 346.7 145.3 346 144 346C142.7 346 142 346.7 142 348C142 349.3 142.7 350 144 350C145.3 350 146 349.3 146 348ZM163.5 346.4C163.5 344.5 163 343.5 162 343.5C160.4 343.5 159.5 346.3 160.4 348.6C161.4 351.1 163.5 349.6 163.5 346.4ZM137 346.5C137 345.7 136.8 345 136.6 345C136.4 345 136 345.7 135.6 346.5C135.3 347.3 135.5 348 136 348C136.6 348 137 347.3 137 346.5ZM146 344C146 343.4 145.1 343 144 343C142.9 343 142 343.4 142 344C142 344.6 142.9 345 144 345C145.1 345 146 344.6 146 344ZM94 309.8C94 309.4 96.1 309 98.8 309.1C104 309.2 103.6 309.7 97.8 310.2C95.7 310.4 94 310.2 94 309.8ZM95 303.5C93.4 301.5 95.3 299 98.5 299C99.7 299 101.3 299.7 102 300.5C103.6 302.5 101.7 305 98.5 305C97.3 305 95.7 304.3 95 303.5ZM101.5 302C101.5 300.2 97.2 299.4 95.8 300.8C94.2 302.4 96 304.1 98.8 303.8C100.4 303.6 101.5 302.9 101.5 302ZM94.1 294.8L94 292.1L97.8 293.6C99.8 294.5 102 295.6 102.5 296.1C103 296.7 101.8 296.4 99.8 295.6C95.2 293.6 95.2 293.6 94.7 295.8C94.4 296.8 94.2 296.5 94.1 294.8ZM95 289.5C93.6 287.8 94.4 285 96.3 285C97.1 285 98.5 285.9 99.6 287.1L101.5 289.2L102.1 286.8L102.8 284.5L102.9 287.9L103 291.4L100.2 288.7C98.7 287.2 96.9 286 96.2 286C94.7 286 94.7 288.3 96.2 289.8C96.9 290.5 97.1 291 96.8 291C96.5 291 95.7 290.3 95 289.5ZM269.8 283.1C270 283.6 293.6 284 327.7 284L385.2 284L384.9 257.5L384.6 231L322.8 231L261 231L261 257.4L261 283.7L265.2 282.9C267.7 282.5 269.6 282.5 269.8 283.1ZM405 283.2C405 282.7 407 282.6 409.5 283L414 283.7L413.8 257.6L413.5 231.5L400.4 231.2L387.3 231L387.1 257.5L386.9 284L395.9 284C400.9 284 405 283.6 405 283.2ZM330.5 281C330.1 280.4 330.1 279.6 330.4 279.3C330.7 278.9 331 279.2 331 279.8C331 280.5 331.9 281 333 281C334.4 281 335 280.3 335 278.9C335 277.3 334.5 276.9 333 277.3C330.9 277.8 330.6 277.2 331.6 274.6C331.9 273.7 333.2 273 334.4 273.1L336.5 273.1L334 274.2L331.5 275.2L333.8 276.1C335.5 276.7 336 277.6 335.8 279.2C335.5 281.7 331.7 282.9 330.5 281ZM341 281.3C341 280.7 340.1 280 339.1 279.8L337.2 279.5L339.5 276.2L341.8 272.9L342.2 276.5C342.4 278.4 342.2 280.6 341.8 281.3C341.2 282.2 341 282.2 341 281.3ZM347.4 278.8C349.4 274.2 349.4 274.2 347.2 273.7C346.2 273.4 346.5 273.2 348.2 273.1L350.9 273L349.4 276.8C348.5 278.8 347.4 280.9 346.9 281.5C346.3 282.1 346.6 280.8 347.4 278.8ZM341 277.5C341 276.7 340.8 276 340.6 276C340.4 276 340 276.7 339.6 277.5C339.3 278.3 339.5 279 340 279C340.6 279 341 278.3 341 277.5ZM251 145.6C251 115.3 250.6 92 250.1 91.8C249.6 91.6 249.5 89.4 250 86.8L250.7 82L241.3 82L232 82L232 140.1L232 198.3L236.5 197.7C239.2 197.3 241 197.4 241 198C241 198.6 243.2 199 246 199L251 199L251 145.6ZM403.9 140.5L403.8 82L371.6 82.1C353.8 82.1 340.7 82.5 342.2 83C350.5 85.5 355.2 91.3 355.8 99.9C356.6 111.3 348.7 120 337.5 120L333 120L333 123.1C333 124.8 332.3 127.4 331.5 128.8C330.7 130.3 328.5 137.1 326.7 144L323.4 156.5L289.2 156.8C266.6 156.9 255 156.7 255 156C255 155.5 257 155 259.5 155C263.9 155 265.7 153.2 263 151.5C261.6 150.6 261.7 145.7 263.2 144.2C263.9 143.5 265.2 143 266.2 143C267.2 143 268 142.6 268 142C268 141.4 268.3 141 268.8 141C270 141 272.2 146.8 271.8 149.1C271.5 151.2 270.6 152 266.5 153.7C265.4 154.1 276.8 154.6 292.9 154.8C308.5 154.9 321.5 154.8 321.7 154.6C322.7 153.6 329 128.8 328.5 128C328.2 127.5 328.6 125.4 329.5 123.3C330.8 120.3 330.8 119.4 329.8 119.1C326.7 118.1 320.1 110.3 319.1 106.2L317.9 102L309.8 102L301.7 102L302.3 106.5C302.7 109.2 302.6 111 302 111C301.4 111 300.9 113.1 300.8 115.8L300.6 120.5L300.3 115.8C300.1 113.1 299.5 111 299.1 111C298.7 111 298.6 109 299 106.5L299.7 102L298.1 101.9L296.5 101.8L298.2 101.3L300 100.9L300 91.4L300 82L276.4 82L252.7 82L253.4 87C253.8 90.2 253.7 92 253 92C252.3 92 252 109.3 252 145.5L252 199L328.1 199L404.1 199L403.9 140.5ZM433 197.9C433 197.2 434.6 197.1 437.5 197.6L442 198.2L442 140.1L442 82L424.1 82L406.2 82L406.1 140.5L405.9 199L419.5 199C428.3 199 433 198.6 433 197.9ZM337.4 192.8C339.4 188.2 339.4 188.2 337.2 187.7C336.2 187.4 336.5 187.2 338.2 187.1L340.9 187L339.4 190.8C338.5 192.8 337.4 194.9 336.9 195.5C336.3 196.1 336.6 194.8 337.4 192.8ZM346 195.3C346 194.7 345.1 194 344.1 193.8L342.2 193.5L344.5 190.2L346.8 186.9L347.2 190.5C347.4 192.4 347.2 194.6 346.8 195.3C346.2 196.2 346 196.2 346 195.3ZM350.5 194.8C350.2 194.1 350.1 192.2 350.3 190.5L350.5 187.5L353 187.5L355.5 187.5L355.5 191.5L355.5 195.5L353.2 195.8C352 196 350.8 195.5 350.5 194.8ZM355 193C355 191.7 354.3 191 353 191C351.7 191 351 191.7 351 193C351 194.3 351.7 195 353 195C354.3 195 355 194.3 355 193ZM346 191.5C346 190.7 345.8 190 345.6 190C345.4 190 345 190.7 344.6 191.5C344.3 192.3 344.5 193 345 193C345.6 193 346 192.3 346 191.5ZM355 189C355 188.4 354.1 188 353 188C351.9 188 351 188.4 351 189C351 189.6 351.9 190 353 190C354.1 190 355 189.6 355 189ZM400 168.3C402 167.4 401.1 164 398.9 164C397.3 164 396.9 164.5 397.3 166C397.6 167.3 397.3 168 396.4 168C395.4 168 395.3 167.4 395.9 165.8C397.1 162.5 401.5 162.6 401.5 165.9C401.5 167.2 400.9 168.4 400.2 168.6C399.5 168.7 399.4 168.6 400 168.3ZM393 165C393 163.9 393.2 163 393.4 163C393.6 163 394 163.9 394.3 165C394.6 166.1 394.4 167 393.9 167C393.4 167 393 166.1 393 165ZM394 160.5C392.6 158.8 393.4 156 395.3 156C396.1 156 397.5 156.9 398.6 158.1L400.5 160.2L401.1 157.8L401.8 155.5L401.9 158.9L402 162.4L399.2 159.7C397.7 158.2 395.9 157 395.2 157C393.7 157 393.7 159.3 395.2 160.8C395.9 161.5 396.1 162 395.8 162C395.5 162 394.7 161.3 394 160.5ZM394 153.5C392.6 151.8 393.4 149 395.3 149C396.1 149 397.5 149.9 398.6 151.1L400.5 153.2L401.1 150.8L401.8 148.5L401.9 151.9L402 155.4L399.2 152.7C397.7 151.2 395.9 150 395.2 150C393.7 150 393.7 152.3 395.2 153.8C395.9 154.5 396.1 155 395.8 155C395.5 155 394.7 154.3 394 153.5ZM297 153.1C297 152.5 297.4 151.8 298 151.5C298.6 151.2 298.7 151.6 298.4 152.4C297.7 154.2 297 154.5 297 153.1ZM276.8 148.5C276.6 146 276.8 144 277.2 144C277.7 144 278 146 278 148.5C278 151 277.8 153 277.6 153C277.4 153 277 151 276.8 148.5ZM284.3 150.2C288.2 146.1 287.1 142.6 283 146.2L281.6 147.5L282.9 145.8C283.6 144.8 284.9 144 285.7 144C288.1 144 288.3 147 286 149.5L283.8 151.8L286.2 152.3C287.9 152.6 287.6 152.8 285.1 152.9L281.6 153L284.3 150.2ZM291.4 149.8C293.4 145.2 293.4 145.2 291.2 144.7C290.2 144.4 290.5 144.2 292.2 144.1L294.9 144L293.4 147.8C292.5 149.8 291.4 151.9 290.9 152.5C290.3 153.1 290.6 151.8 291.4 149.8ZM300.5 152C300.1 151.4 300.1 150.6 300.4 150.3C300.7 149.9 301 150.2 301 150.8C301 151.5 301.9 152 303 152C305.2 152 305.8 149.5 303.8 148.7C302.8 148.3 302.8 148.1 303.8 148.1C304.4 148 305 147.3 305 146.4C305 145.2 304.3 144.9 302.4 145.3C300.8 145.6 300.2 145.4 300.8 144.8C303.1 142.5 305.5 144.4 305.5 148.5L305.5 152.5L303.3 152.8C302.2 153 300.9 152.6 300.5 152ZM308.2 151.8C305.2 148.8 308.3 142.4 311.5 145C314 147 312.8 153 310 153C309.7 153 308.9 152.5 308.2 151.8ZM268.8 150.8C270.1 149.5 270.4 146 269.2 146C268.8 146 267.9 147.3 267.3 149C266.1 152.1 266.7 152.9 268.8 150.8ZM311.5 148.4C311.5 146.5 311 145.5 310 145.5C308.4 145.5 307.5 148.3 308.4 150.6C309.4 153.1 311.5 151.6 311.5 148.4ZM266.6 145.2C265.4 144.1 262.9 147.6 263.6 149.4L264.3 151.3L265.7 148.5C266.5 147 266.9 145.6 266.6 145.2ZM400.5 145C400.2 144.4 400.2 144 400.6 144C401 144 400.3 142.9 399 141.5C395.3 137.6 391.7 139.1 395.2 143L396.5 144.4L394.8 143.1C393.8 142.4 393 141.1 393 140.3C393 137.9 396 137.7 398.5 140L400.8 142.2L401.4 139.8C401.6 138.6 401.8 139.2 401.6 141.2C401.5 143.3 401.9 145.2 402.5 145.4C403.1 145.7 403 145.9 402.3 145.9C401.7 146 400.8 145.6 400.5 145ZM400 135.3C402 134.4 401.1 131 398.9 131C397.3 131 396.9 131.5 397.3 133C397.6 134.3 397.3 135 396.4 135C395.4 135 395.3 134.4 395.9 132.8C397.1 129.5 401.5 129.6 401.5 132.9C401.5 134.2 400.9 135.4 400.2 135.6C399.5 135.7 399.4 135.6 400 135.3ZM393 132C393 130.9 393.2 130 393.4 130C393.6 130 394 130.9 394.3 132C394.6 133.1 394.4 134 393.9 134C393.4 134 393 133.1 393 132ZM344.4 116.6C352.6 113.2 356.5 101.3 352.1 93.3C350.1 89.9 343.4 84.1 342.7 85.1C341.9 86.1 339 98.2 339 100.3C339 101.6 338.6 103 338.1 103.6C337.4 104.4 334 115.6 334 117.3C334 118.5 341 118 344.4 116.6ZM334.1 109.9C335.1 106.4 335.9 103.2 336 102.8C336 102.3 332.4 102 328 102C323.2 102 320 102.4 320 103C320 107.3 328.5 117.7 331.3 116.7C331.8 116.6 333.1 113.5 334.1 109.9ZM318.5 98.2C320.2 90.5 325.5 84.6 332.3 83C334.2 82.5 328.7 82.2 318.2 82.1L301 82L301 91.5L301 101L309.5 101L318 101L318.5 98.2ZM335.9 99.6C336.6 98.8 337.9 95.2 339 91.5L340.9 84.9L339.4 84.3C333.1 81.9 322.6 89.6 320.5 98.2L319.8 101L327.3 101C332.5 101 335.1 100.6 335.9 99.6ZM46.2 47.8C46.1 22.4 45.7 15 44.8 15C43.9 15 43.8 14.7 44.6 14.2C45.2 13.8 46 12.8 46.3 12L46.8 10.5L46.9 12.2L47 14L337 14L627 14L627 12.5C627 10.5 628.8 10.6 629.2 12.7C630 16.9 628.9 80 628 80C627.4 80 627 68 627 47.9L627 15.8L622.5 16.4C619.6 16.9 618 16.8 618 16.1C618 15.3 534.5 15 337 15C139.5 15 56 15.3 56 16.1C56 16.8 54.4 16.9 51.5 16.4L47 15.8L46.7 48.1L46.5 80.5L46.2 47.8ZM86 77C86 76.5 84.7 76 83 76C81.3 76 80 76.5 80 77C80 77.5 81.3 78 83 78C84.7 78 86 77.5 86 77ZM463 77C463 76.5 461.9 76 460.5 76C459.1 76 458 76.5 458 77C458 77.5 459.1 78 460.5 78C461.9 78 463 77.5 463 77ZM85 73C85 72.5 83.9 72 82.5 72C81.1 72 80 72.5 80 73C80 73.5 81.1 74 82.5 74C83.9 74 85 73.5 85 73ZM463 73C463 72.5 461.9 72 460.5 72C459.1 72 458 72.5 458 73C458 73.5 459.1 74 460.5 74C461.9 74 463 73.5 463 73ZM289.1 67.8L289 65.1L292.8 66.6C294.8 67.5 296.9 68.6 297.5 69.1C298.1 69.7 296.8 69.4 294.8 68.6C290.2 66.6 290.2 66.6 289.7 68.8C289.4 69.8 289.2 69.5 289.1 67.8ZM84.8 68.3C83.8 68.1 82.2 68.1 81.2 68.3C80.3 68.6 81.1 68.8 83 68.8C84.9 68.8 85.7 68.6 84.8 68.3ZM462.3 68.3C461.6 68.1 460.2 68.1 459.3 68.3C458.3 68.6 458.9 68.8 460.5 68.8C462.1 68.8 462.9 68.6 462.3 68.3ZM85 63C85 62.5 83.9 62 82.5 62C81.1 62 80 62.5 80 63C80 63.5 81.1 64 82.5 64C83.9 64 85 63.5 85 63ZM290 62.5C288.4 60.5 290.3 58 293.5 58C296.7 58 298.6 60.5 297 62.5C296.3 63.3 294.7 64 293.5 64C292.3 64 290.7 63.3 290 62.5ZM463 63C463 62.5 461.9 62 460.5 62C459.1 62 458 62.5 458 63C458 63.5 459.1 64 460.5 64C461.9 64 463 63.5 463 63ZM296.5 61C296.5 59.2 292.2 58.4 290.8 59.8C289.2 61.4 291 63.1 293.8 62.8C295.4 62.6 296.5 61.9 296.5 61ZM84.8 57.3C83.8 57.1 82.2 57.1 81.2 57.3C80.3 57.6 81.1 57.8 83 57.8C84.9 57.8 85.7 57.6 84.8 57.3ZM462.3 57.3C461.6 57.1 460.2 57.1 459.3 57.3C458.3 57.6 458.9 57.8 460.5 57.8C462.1 57.8 462.9 57.6 462.3 57.3ZM84.3 53.3C83.6 53.1 82.2 53.1 81.3 53.3C80.3 53.6 80.8 53.8 82.5 53.8C84.2 53.8 84.9 53.6 84.3 53.3ZM462.3 53.3C461.6 53.1 460.2 53.1 459.3 53.3C458.3 53.6 458.9 53.8 460.5 53.8C462.1 53.8 462.9 53.6 462.3 53.3ZM315.3 9.2C319.2 5.1 318.1 1.6 314 5.2L312.6 6.5L313.9 4.8C314.6 3.8 315.9 3 316.7 3C319.1 3 319.3 6 317 8.5L314.8 10.8L317.2 11.3C318.9 11.6 318.6 11.8 316.1 11.9L312.6 12L315.3 9.2ZM321.2 10.8C318.2 7.8 321.3 1.4 324.5 4C327 6 325.8 12 323 12C322.7 12 321.9 11.5 321.2 10.8ZM327.5 11C327.1 10.4 327.1 9.6 327.4 9.3C327.7 8.9 328 9.2 328 9.8C328 10.5 328.9 11 330 11C331.4 11 332 10.3 332 8.9C332 7.3 331.5 6.9 330 7.3C327.9 7.8 327.6 7.2 328.6 4.6C328.9 3.7 330.2 3 331.4 3.1L333.5 3.1L331 4.2L328.5 5.2L330.8 6.1C332.5 6.7 333 7.6 332.8 9.2C332.5 11.7 328.7 12.9 327.5 11ZM335.5 11C335.1 10.4 335.1 9.6 335.4 9.3C335.7 8.9 336 9.2 336 9.8C336 10.5 336.9 11 338 11C340.2 11 340.8 8.5 338.8 7.7C337.8 7.3 337.8 7.1 338.8 7.1C339.4 7 340 6.3 340 5.4C340 4.2 339.3 3.9 337.4 4.3C335.8 4.6 335.2 4.4 335.8 3.8C338.1 1.5 340.5 3.4 340.5 7.5L340.5 11.5L338.3 11.8C337.2 12 335.9 11.6 335.5 11ZM324.5 7.4C324.5 5.5 324 4.5 323 4.5C321.4 4.5 320.5 7.3 321.4 9.6C322.4 12.1 324.5 10.6 324.5 7.4Z"/></svg>